<mxfile host="app.diagrams.net" agent="Mozilla/5.0 (Windows NT 10.0; Win64; x64) AppleWebKit/537.36 (KHTML, like Gecko) Chrome/139.0.0.0 Safari/537.36" version="28.1.1">
  <diagram name="Page-1" id="t2oY4HdKHzvjQ1FrkzKl">
    <mxGraphModel dx="1042" dy="562" grid="1" gridSize="10" guides="1" tooltips="1" connect="1" arrows="1" fold="1" page="1" pageScale="1" pageWidth="850" pageHeight="1100" math="0" shadow="0">
      <root>
        <mxCell id="Svy-2zn7YNvV7I8tYLpZ-0" />
        <mxCell id="Svy-2zn7YNvV7I8tYLpZ-1" parent="Svy-2zn7YNvV7I8tYLpZ-0" />
        <mxCell id="mvrC8RXfldJ8lUkRN0pW-0" value="&lt;div&gt;&lt;br&gt;&lt;/div&gt;&lt;div&gt;Start&lt;/div&gt;" style="ellipse;whiteSpace=wrap;html=1;fillColor=#60a917;fontColor=light-dark(#150909, #121212);strokeColor=#2D7600;fontStyle=0;fontSize=18;" vertex="1" parent="Svy-2zn7YNvV7I8tYLpZ-1">
          <mxGeometry x="330" y="30" width="120" height="50" as="geometry" />
        </mxCell>
        <mxCell id="mvrC8RXfldJ8lUkRN0pW-2" value="New user?&lt;div&gt;&lt;br&gt;&lt;/div&gt;" style="rhombus;whiteSpace=wrap;html=1;fillColor=#e51400;fontColor=light-dark(#151414, #121212);strokeColor=#B20000;fontSize=17;" vertex="1" parent="Svy-2zn7YNvV7I8tYLpZ-1">
          <mxGeometry x="295" y="120" width="190" height="90" as="geometry" />
        </mxCell>
        <mxCell id="mvrC8RXfldJ8lUkRN0pW-3" value="Give your&amp;nbsp;&lt;div&gt;photograph&lt;/div&gt;" style="rounded=0;whiteSpace=wrap;html=1;fillColor=#fff2cc;gradientColor=#ffd966;strokeColor=#d6b656;fontColor=#000000;fontSize=14;" vertex="1" parent="Svy-2zn7YNvV7I8tYLpZ-1">
          <mxGeometry x="600" y="135" width="120" height="60" as="geometry" />
        </mxCell>
        <mxCell id="mvrC8RXfldJ8lUkRN0pW-4" value="Store the face&amp;nbsp;&lt;div&gt;&lt;span style=&quot;background-color: transparent;&quot;&gt;data in folder&lt;/span&gt;&lt;/div&gt;&lt;div&gt;&lt;span style=&quot;background-color: transparent;&quot;&gt;on your name&amp;nbsp;&lt;/span&gt;&lt;/div&gt;" style="rounded=0;whiteSpace=wrap;html=1;fillColor=#dae8fc;gradientColor=#7ea6e0;strokeColor=#6c8ebf;fontSize=13;fontColor=#000000;" vertex="1" parent="Svy-2zn7YNvV7I8tYLpZ-1">
          <mxGeometry x="600" y="240" width="120" height="60" as="geometry" />
        </mxCell>
        <mxCell id="mvrC8RXfldJ8lUkRN0pW-5" value="Recongnize the face" style="shape=parallelogram;perimeter=parallelogramPerimeter;whiteSpace=wrap;html=1;fixedSize=1;fillColor=#d80073;fontColor=#000000;strokeColor=#A50040;fontSize=14;" vertex="1" parent="Svy-2zn7YNvV7I8tYLpZ-1">
          <mxGeometry x="295" y="250" width="190" height="60" as="geometry" />
        </mxCell>
        <mxCell id="mvrC8RXfldJ8lUkRN0pW-6" value="&lt;font style=&quot;color: rgb(0, 0, 0);&quot;&gt;Face&amp;nbsp;&lt;/font&gt;&lt;div&gt;&lt;font style=&quot;color: rgb(0, 0, 0);&quot;&gt;Recongnize&lt;/font&gt;&lt;/div&gt;" style="rhombus;whiteSpace=wrap;html=1;fillColor=#1ba1e2;fontColor=#ffffff;strokeColor=#006EAF;fontSize=15;" vertex="1" parent="Svy-2zn7YNvV7I8tYLpZ-1">
          <mxGeometry x="305" y="340" width="170" height="80" as="geometry" />
        </mxCell>
        <mxCell id="mvrC8RXfldJ8lUkRN0pW-7" value="&amp;nbsp;Stored in csv file&lt;div&gt;with registration&amp;nbsp;&lt;/div&gt;&lt;div&gt;number &amp;amp; date&amp;nbsp;&lt;/div&gt;&lt;div&gt;Time of Entry.&lt;/div&gt;" style="shape=parallelogram;perimeter=parallelogramPerimeter;whiteSpace=wrap;html=1;fixedSize=1;fillColor=#f0a30a;fontColor=#000000;strokeColor=#BD7000;" vertex="1" parent="Svy-2zn7YNvV7I8tYLpZ-1">
          <mxGeometry x="300" y="460" width="180" height="70" as="geometry" />
        </mxCell>
        <mxCell id="mvrC8RXfldJ8lUkRN0pW-8" value="&lt;font style=&quot;font-size: 23px; color: rgb(0, 0, 0);&quot;&gt;End&lt;/font&gt;" style="ellipse;whiteSpace=wrap;html=1;fillColor=#60a917;fontColor=#ffffff;strokeColor=#2D7600;" vertex="1" parent="Svy-2zn7YNvV7I8tYLpZ-1">
          <mxGeometry x="330" y="570" width="120" height="60" as="geometry" />
        </mxCell>
        <mxCell id="mvrC8RXfldJ8lUkRN0pW-9" value="" style="endArrow=classic;html=1;rounded=0;exitX=0.5;exitY=1;exitDx=0;exitDy=0;entryX=0.5;entryY=0;entryDx=0;entryDy=0;" edge="1" parent="Svy-2zn7YNvV7I8tYLpZ-1" source="mvrC8RXfldJ8lUkRN0pW-0" target="mvrC8RXfldJ8lUkRN0pW-2">
          <mxGeometry width="50" height="50" relative="1" as="geometry">
            <mxPoint x="390" y="90" as="sourcePoint" />
            <mxPoint x="450" y="260" as="targetPoint" />
          </mxGeometry>
        </mxCell>
        <mxCell id="mvrC8RXfldJ8lUkRN0pW-10" value="" style="endArrow=classic;html=1;rounded=0;exitX=0.5;exitY=1;exitDx=0;exitDy=0;entryX=0.5;entryY=0;entryDx=0;entryDy=0;" edge="1" parent="Svy-2zn7YNvV7I8tYLpZ-1" source="mvrC8RXfldJ8lUkRN0pW-2" target="mvrC8RXfldJ8lUkRN0pW-5">
          <mxGeometry width="50" height="50" relative="1" as="geometry">
            <mxPoint x="400" y="310" as="sourcePoint" />
            <mxPoint x="450" y="260" as="targetPoint" />
          </mxGeometry>
        </mxCell>
        <mxCell id="mvrC8RXfldJ8lUkRN0pW-11" value="" style="endArrow=classic;html=1;rounded=0;exitX=0.5;exitY=1;exitDx=0;exitDy=0;entryX=0.5;entryY=0;entryDx=0;entryDy=0;" edge="1" parent="Svy-2zn7YNvV7I8tYLpZ-1" source="mvrC8RXfldJ8lUkRN0pW-5" target="mvrC8RXfldJ8lUkRN0pW-6">
          <mxGeometry width="50" height="50" relative="1" as="geometry">
            <mxPoint x="400" y="310" as="sourcePoint" />
            <mxPoint x="450" y="260" as="targetPoint" />
          </mxGeometry>
        </mxCell>
        <mxCell id="mvrC8RXfldJ8lUkRN0pW-12" value="" style="endArrow=classic;html=1;rounded=0;exitX=0.5;exitY=1;exitDx=0;exitDy=0;entryX=0.5;entryY=0;entryDx=0;entryDy=0;" edge="1" parent="Svy-2zn7YNvV7I8tYLpZ-1" source="mvrC8RXfldJ8lUkRN0pW-6" target="mvrC8RXfldJ8lUkRN0pW-7">
          <mxGeometry width="50" height="50" relative="1" as="geometry">
            <mxPoint x="400" y="310" as="sourcePoint" />
            <mxPoint x="450" y="260" as="targetPoint" />
          </mxGeometry>
        </mxCell>
        <mxCell id="mvrC8RXfldJ8lUkRN0pW-13" value="" style="endArrow=classic;html=1;rounded=0;exitX=0.5;exitY=1;exitDx=0;exitDy=0;entryX=0.5;entryY=0;entryDx=0;entryDy=0;" edge="1" parent="Svy-2zn7YNvV7I8tYLpZ-1" source="mvrC8RXfldJ8lUkRN0pW-7" target="mvrC8RXfldJ8lUkRN0pW-8">
          <mxGeometry width="50" height="50" relative="1" as="geometry">
            <mxPoint x="400" y="460" as="sourcePoint" />
            <mxPoint x="450" y="410" as="targetPoint" />
          </mxGeometry>
        </mxCell>
        <mxCell id="mvrC8RXfldJ8lUkRN0pW-14" value="" style="endArrow=none;html=1;rounded=0;entryX=0;entryY=0.5;entryDx=0;entryDy=0;exitX=1;exitY=0.5;exitDx=0;exitDy=0;" edge="1" parent="Svy-2zn7YNvV7I8tYLpZ-1" source="mvrC8RXfldJ8lUkRN0pW-2" target="mvrC8RXfldJ8lUkRN0pW-3">
          <mxGeometry width="50" height="50" relative="1" as="geometry">
            <mxPoint x="400" y="300" as="sourcePoint" />
            <mxPoint x="450" y="250" as="targetPoint" />
          </mxGeometry>
        </mxCell>
        <mxCell id="mvrC8RXfldJ8lUkRN0pW-15" value="" style="endArrow=none;html=1;rounded=0;exitX=1;exitY=0.5;exitDx=0;exitDy=0;entryX=-0.01;entryY=0.63;entryDx=0;entryDy=0;entryPerimeter=0;" edge="1" parent="Svy-2zn7YNvV7I8tYLpZ-1" source="mvrC8RXfldJ8lUkRN0pW-5" target="mvrC8RXfldJ8lUkRN0pW-4">
          <mxGeometry width="50" height="50" relative="1" as="geometry">
            <mxPoint x="400" y="300" as="sourcePoint" />
            <mxPoint x="450" y="250" as="targetPoint" />
          </mxGeometry>
        </mxCell>
        <mxCell id="mvrC8RXfldJ8lUkRN0pW-18" value="" style="endArrow=none;html=1;rounded=0;exitX=1;exitY=0.5;exitDx=0;exitDy=0;" edge="1" parent="Svy-2zn7YNvV7I8tYLpZ-1" source="mvrC8RXfldJ8lUkRN0pW-6">
          <mxGeometry width="50" height="50" relative="1" as="geometry">
            <mxPoint x="400" y="300" as="sourcePoint" />
            <mxPoint x="790" y="380" as="targetPoint" />
          </mxGeometry>
        </mxCell>
        <mxCell id="mvrC8RXfldJ8lUkRN0pW-19" value="" style="endArrow=none;html=1;rounded=0;" edge="1" parent="Svy-2zn7YNvV7I8tYLpZ-1">
          <mxGeometry width="50" height="50" relative="1" as="geometry">
            <mxPoint x="790" y="380" as="sourcePoint" />
            <mxPoint x="790" y="80" as="targetPoint" />
          </mxGeometry>
        </mxCell>
        <mxCell id="mvrC8RXfldJ8lUkRN0pW-20" value="" style="endArrow=none;html=1;rounded=0;" edge="1" parent="Svy-2zn7YNvV7I8tYLpZ-1">
          <mxGeometry width="50" height="50" relative="1" as="geometry">
            <mxPoint x="660" y="80" as="sourcePoint" />
            <mxPoint x="790" y="80" as="targetPoint" />
          </mxGeometry>
        </mxCell>
        <mxCell id="mvrC8RXfldJ8lUkRN0pW-21" value="" style="endArrow=classic;html=1;rounded=0;entryX=0.5;entryY=0;entryDx=0;entryDy=0;" edge="1" parent="Svy-2zn7YNvV7I8tYLpZ-1" target="mvrC8RXfldJ8lUkRN0pW-3">
          <mxGeometry width="50" height="50" relative="1" as="geometry">
            <mxPoint x="660" y="80" as="sourcePoint" />
            <mxPoint x="450" y="250" as="targetPoint" />
          </mxGeometry>
        </mxCell>
        <mxCell id="mvrC8RXfldJ8lUkRN0pW-22" value="" style="endArrow=none;html=1;rounded=0;exitX=0.5;exitY=0;exitDx=0;exitDy=0;" edge="1" parent="Svy-2zn7YNvV7I8tYLpZ-1" source="mvrC8RXfldJ8lUkRN0pW-4">
          <mxGeometry width="50" height="50" relative="1" as="geometry">
            <mxPoint x="400" y="300" as="sourcePoint" />
            <mxPoint x="660" y="200" as="targetPoint" />
          </mxGeometry>
        </mxCell>
      </root>
    </mxGraphModel>
  </diagram>
</mxfile>
